# xmcd CD database file
#
# Track frame offsets:
#	150
#	13358
#	29899
#	47550
#	70218
#	90193
#	109751
#	123561
#	142842
#	160188
#	179642
#	197102
#
# Disc length: 2900 seconds
#
# Revision: 3
# Processed by: cddbd v1.5.2PL0 Copyright (c) Steve Scherf et al.
# Submitted via: CDex 1.72
#
DISCID=a80b520c
DTITLE=Ely, Joe (USA-03-Streets Of Sin-flk) - Streets of Sin
DYEAR=2003
DGENRE=country folk
TTITLE0=Fightin' For My Life
TTITLE1=I'm On The Run Again
TTITLE2=A Flood On Our Hands
TTITLE3=All That You Need
TTITLE4=Run Little Pony
TTITLE5=Streets Of Sin
TTITLE6=95 South
TTITLE7=Carnival Bum
TTITLE8=Twisty River Bridge
TTITLE9=That's Why I Love You
TTITLE10=Wind's Gonna Blow You Away
TTITLE11=I Gotta Find Ol' Joe
EXTD=YEAR: 2003
EXTT0=
EXTT1=
EXTT2=
EXTT3=
EXTT4=
EXTT5=
EXTT6=
EXTT7=
EXTT8=
EXTT9=
EXTT10=
EXTT11=
PLAYORDER=
